<svg  xmlns="http://www.w3.org/2000/svg" xmlns:xlink="http://www.w3.org/1999/xlink" viewBox="0 0 577.47 173.2"><defs><style>.cls-1{font-size:90.71px;fill:#1b1464;font-family:Montserrat-Regular, Montserrat;letter-spacing:0.05em;}.cls-2{letter-spacing:0.05em;}.cls-3{letter-spacing:0.05em;}.cls-4{letter-spacing:0.05em;}.cls-5{font-size:56.69px;fill:#93278f;stroke:#93278f;stroke-miterlimit:10;stroke-width:0.8px;font-family:Montserrat-Thin, Montserrat;font-weight:200;letter-spacing:0.05em;}.cls-6{fill:url(#linear-gradient);}.cls-7{fill:url(#linear-gradient-2);}.cls-8{fill:url(#linear-gradient-3);}.cls-9{fill:url(#linear-gradient-4);}.cls-10{fill:url(#linear-gradient-5);}</style><linearGradient id="linear-gradient" x1="21.06" y1="136" x2="21.06" y2="54.77" gradientUnits="userSpaceOnUse"><stop offset="0" stop-color="#93278f"/><stop offset="1" stop-color="#1b1464"/></linearGradient><linearGradient id="linear-gradient-2" x1="-5446.14" y1="70.63" x2="-5446.14" y2="173.2" gradientTransform="translate(5467.2)" xlink:href="#linear-gradient"/><linearGradient id="linear-gradient-3" x1="55.03" y1="131.45" x2="55.03" y2="1.21" gradientUnits="userSpaceOnUse"><stop offset="0.35" stop-color="#3fa9f5"/><stop offset="0.89" stop-color="#301dfd"/><stop offset="1" stop-color="#2d00ff"/></linearGradient><linearGradient id="linear-gradient-4" x1="-8399.83" y1="173.2" x2="-8399.83" y2="70.63" gradientTransform="matrix(-1, 0, 0, 1, -8323.55, 0)" gradientUnits="userSpaceOnUse"><stop offset="0" stop-color="#3fa9f5"/><stop offset="1" stop-color="#2d00ff"/></linearGradient><linearGradient id="linear-gradient-5" x1="21.06" y1="43.08" x2="21.06" y2="0.96" xlink:href="#linear-gradient"/></defs><g id="Layer_2" data-name="Layer 2"><g id="Layer_1-2" data-name="Layer 1"><text class="cls-1" transform="translate(132.45 77.1)">ili<tspan class="cls-2" x="86.81" y="0">p</tspan><tspan class="cls-3" x="152.57" y="0">a O</tspan><tspan class="cls-4" x="319.56" y="0">n</tspan><tspan x="385.69" y="0">e</tspan></text><text class="cls-5" transform="translate(153.08 148.42)">simply better</text><path class="cls-6" d="M21.06,136h0A21.06,21.06,0,0,1,0,114.94V75.66A20.6,20.6,0,0,1,20.68,54.77h0c11.63,0,21.44,9.26,21.44,20.89v39.28A21.06,21.06,0,0,1,21.06,136Z"/><path class="cls-7" d="M21.06,173.2h0A21.06,21.06,0,0,1,0,152.14v-39.5c0-21,21.06-42,42.12-42v81.51A21.06,21.06,0,0,1,21.06,173.2Z"/><path class="cls-8" d="M64.84,4.59A20.91,20.91,0,0,1,76.28,1.21h0A21.06,21.06,0,0,1,97.34,22.27v88.12a21.06,21.06,0,0,1-21.06,21.06h0a21.06,21.06,0,0,1-21.06-21.06V70.63l-21.44-.08A21.06,21.06,0,0,1,22.26,31.86Z"/><path class="cls-9" d="M76.28,173.2h0a21.06,21.06,0,0,0,21.06-21.06v-39.5c0-21-21-42-42.12-42v81.51A21.06,21.06,0,0,0,76.28,173.2Z"/><circle class="cls-10" cx="21.06" cy="22.02" r="21.06"/></g></g></svg>